<?xml version="1.0" encoding="UTF-8" standalone="no"?>
<svg
   height="24px"
   viewBox="0 -960 960 960"
   width="24px"
   fill="#1f1f1f"
   version="1.1"
   id="svg1"
   sodipodi:docname="icon.svg"
   inkscape:version="1.4.2 (ebf0e940d0, 2025-05-08)"
   xmlns:inkscape="http://www.inkscape.org/namespaces/inkscape"
   xmlns:sodipodi="http://sodipodi.sourceforge.net/DTD/sodipodi-0.dtd"
   xmlns="http://www.w3.org/2000/svg"
   xmlns:svg="http://www.w3.org/2000/svg">
  <defs
     id="defs1" />
  <sodipodi:namedview
     id="namedview1"
     pagecolor="#ffffff"
     bordercolor="#666666"
     borderopacity="1.0"
     inkscape:showpageshadow="2"
     inkscape:pageopacity="0.0"
     inkscape:pagecheckerboard="0"
     inkscape:deskcolor="#d1d1d1"
     inkscape:zoom="23.458333"
     inkscape:cx="0.85257549"
     inkscape:cy="7.7158082"
     inkscape:window-width="2560"
     inkscape:window-height="1372"
     inkscape:window-x="0"
     inkscape:window-y="0"
     inkscape:window-maximized="1"
     inkscape:current-layer="svg1" />
  <path
     d="M360-240q-33 0-56.5-23.5T280-320v-480q0-33 23.5-56.5T360-880h360q33 0 56.5 23.5T800-800v480q0 33-23.5 56.5T720-240H360Zm0-80h360v-480H360v480ZM200-80q-33 0-56.5-23.5T120-160v-560h80v560h440v80H200Zm160-240v-480 480Z"
     id="path1" />
  <text
     xml:space="preserve"
     style="font-size:533.3333332px;line-height:125%;font-family:'Aptos Narrow';-inkscape-font-specification:'Aptos Narrow, Normal';font-variant-ligatures:none;letter-spacing:0px;word-spacing:0px;fill:none;stroke:#000000;stroke-width:40px;stroke-linecap:butt;stroke-linejoin:miter;stroke-opacity:1"
     x="380.24869"
     y="-757.08704"
     id="text1"><tspan
       sodipodi:role="line"
       id="tspan1"
       style="stroke-width:40px;font-size:533.3333332px"></tspan></text>
  <text
     xml:space="preserve"
     style="font-size:402.346px;line-height:125%;font-family:FreeMono;-inkscape-font-specification:'FreeMono, Normal';font-variant-ligatures:none;letter-spacing:0px;word-spacing:0px;fill:none;stroke:#000000;stroke-width:33.5287px;stroke-linecap:butt;stroke-linejoin:miter;stroke-opacity:1"
     x="471.71426"
     y="-404.38019"
     id="text2"
     transform="scale(0.93698083,1.0672577)"><tspan
       sodipodi:role="line"
       id="tspan2"
       style="stroke-width:33.5287px"
       x="471.71426"
       y="-404.38019">D</tspan></text>
</svg>
